<?xml version="1.0" standalone="no"?>
<!DOCTYPE svg PUBLIC "-//W3C//DTD SVG 20010904//EN"
 "http://www.w3.org/TR/2001/REC-SVG-20010904/DTD/svg10.dtd">
<svg version="1.0" xmlns="http://www.w3.org/2000/svg"
 width="368.000000pt" height="368.000000pt" viewBox="0 0 368.000000 368.000000"
 preserveAspectRatio="xMidYMid meet">
<metadata>
Created by potrace 1.14, written by Peter Selinger 2001-2017
</metadata>
<g transform="translate(0.000000,368.000000) scale(0.100000,-0.100000)"
fill="#000000" stroke="none">
<path d="M1775 3635 c-39 -34 -193 -140 -265 -183 -184 -109 -474 -218 -655
-246 -16 -2 -48 -7 -70 -11 -113 -17 -248 -27 -412 -29 -107 -1 -157 -6 -165
-14 -10 -10 -13 -70 -12 -240 1 -219 10 -504 19 -587 2 -23 7 -70 10 -105 3
-36 17 -130 31 -210 14 -80 27 -158 30 -175 14 -83 100 -352 141 -445 53 -120
78 -173 110 -235 39 -75 129 -221 150 -243 7 -7 13 -17 13 -22 0 -5 6 -15 13
-22 6 -7 31 -38 54 -68 78 -101 202 -232 298 -315 32 -27 70 -60 84 -72 37
-32 39 -34 111 -83 36 -25 67 -48 70 -51 11 -13 138 -89 149 -89 6 0 11 -3 11
-7 0 -11 76 -55 233 -136 105 -54 122 -53 282 29 71 37 132 71 133 75 2 5 8 9
12 9 11 0 196 110 218 130 9 8 29 23 43 32 104 67 374 318 459 428 19 25 38
46 42 48 5 2 8 10 8 18 0 8 4 14 8 14 13 0 163 233 216 333 25 49 62 128 82
175 20 48 43 101 50 119 8 17 14 37 14 45 0 8 4 18 9 24 6 7 28 73 37 114 0 3
4 12 7 20 4 8 9 26 11 40 3 14 10 43 16 65 6 22 13 48 15 58 2 10 6 26 9 35 3
9 8 33 11 52 3 19 8 46 10 60 3 14 8 40 10 58 7 47 13 83 19 117 7 40 21 162
32 275 2 30 6 204 9 387 3 290 2 333 -12 344 -10 9 -61 14 -167 15 -182 3
-321 12 -431 30 -16 2 -43 7 -60 9 -16 3 -41 8 -55 11 -14 3 -45 10 -70 15
-92 19 -299 97 -425 160 -85 43 -251 147 -337 212 -49 37 -95 67 -101 67 -7
-1 -30 -16 -52 -35z"/>
</g>
</svg>
